<svg id="Capa_1" enable-background="new 0 0 512 512" height="512" viewBox="0 0 512 512" width="512" xmlns="http://www.w3.org/2000/svg"><g><g><path d="m127.054 257.647 105.111-60.771 39.59 25.549c4.692 3.029 10.634 3.211 15.506.474l91.385-51.368-2.364 7.127c-1.304 3.932.826 8.176 4.757 9.48 3.923 1.299 8.173-.816 9.48-4.757l7.11-21.438c2.079-6.269-1.752-12.98-8.234-14.352l-22.096-4.681c-4.05-.86-8.033 1.73-8.891 5.783-.859 4.052 1.73 8.033 5.783 8.891l6.282 1.331-90.585 50.906-39.589-25.549c-4.76-3.072-10.763-3.219-15.666-.383l-105.088 60.771c-3.586 2.074-4.812 6.662-2.738 10.247 2.077 3.594 6.668 4.811 10.247 2.74z"/><path d="m443.706 327.246v-202.646c0-7.919-6.442-14.361-14.361-14.361h-288.345c-4.142 0-7.5 3.358-7.5 7.5s3.358 7.5 7.5 7.5h287.706v201.368h-32.505v-33.384c0-4.142-3.358-7.5-7.5-7.5s-7.5 3.358-7.5 7.5v33.384h-15.903v-95.162l15.903-8.939v35.646c0 4.142 3.358 7.5 7.5 7.5s7.5-3.358 7.5-7.5v-37.531c0-10.623-11.434-17.325-20.708-12.115l-18.108 10.179c-4.372 2.458-7.087 7.1-7.087 12.115v95.807h-32.264v-62.048c0-10.623-11.433-17.325-20.707-12.115l-18.108 10.179c-4.372 2.458-7.087 7.1-7.087 12.115v51.87h-32.264v-75.02c0-10.702-11.586-17.395-20.86-12.028l-18.108 10.481c-4.277 2.477-6.934 7.085-6.934 12.027v64.539h-32.264v-29.818c0-10.698-11.577-17.391-20.853-12.032l-18.108 10.468c-4.281 2.476-6.941 7.086-6.941 12.031v19.351h-32.506v-201.368h22.706c4.142 0 7.5-3.358 7.5-7.5s-3.358-7.5-7.5-7.5h-23.345c-7.919 0-14.361 6.442-14.361 14.361v202.646c0 7.919 6.442 14.361 14.361 14.361h346.689c7.92 0 14.362-6.442 14.362-14.361zm-156.574-51.864 15.902-8.938v60.164h-15.902zm-78.166-12.678 15.902-9.205v73.108h-15.902zm-78.166 45.188 15.902-9.192v27.907h-15.902z"/><path d="m492.075 361.813h-13.163v-253.28c0-18.472-15.027-33.499-33.499-33.499h-378.826c-18.471 0-33.499 15.027-33.499 33.499v253.28h-13.163c-10.987 0-19.925 8.938-19.925 19.925 0 30.453 24.776 55.229 55.229 55.229h401.542c30.453 0 55.229-24.776 55.229-55.229 0-10.987-8.938-19.925-19.925-19.925zm-443.987-253.281c0-10.2 8.298-18.499 18.499-18.499h378.826c10.2 0 18.499 8.299 18.499 18.499v253.28h-415.824zm135.612 268.281h144.6v7.539c0 4.157-3.382 7.539-7.539 7.539h-129.522c-4.157 0-7.539-3.382-7.539-7.539zm273.071 45.154h-401.542c-22.182 0-40.229-18.047-40.229-40.229 0-2.716 2.209-4.925 4.925-4.925h148.775v7.539c0 12.428 10.111 22.539 22.539 22.539h129.522c12.428 0 22.539-10.111 22.539-22.539v-7.539h148.775c2.716 0 4.925 2.209 4.925 4.925 0 22.182-18.047 40.229-40.229 40.229z"/></g></g></svg>