<svg xmlns="http://www.w3.org/2000/svg" xmlns:xlink="http://www.w3.org/1999/xlink"><defs><symbol viewBox="0 0 1080 1080" id="avocade"><defs><style>#avocade .cls-1{fill:none}#avocade .cls-5{fill:#49321d}</style></defs><path d="M521 756.15c-150.58 69.27-264.63-84.3-219.46-178.62 48.64-101.53 45.78-154.44 45.78-154.44 4.29-143 94.38-134.42 94.38-134.42s30.5-5.07 55.43 32.74" /><g clip-path="url(#avocade_clip-path)"><path d="M559.13 754.72C408.55 824 294.5 670.41 339.67 576.09c48.62-101.53 45.76-154.44 45.76-154.44 4.29-143 94.38-134.42 94.38-134.42s30.49-5.07 55.43 32.74" /></g><path class="cls-5" d="M517.43 748.36C492.14 760 468.21 765 446.08 765a141 141 0 01-58.75-12.69 152.37 152.37 0 01-63.56-54.87c-15.2-23.06-23.64-49.39-23.62-74.21a96.72 96.72 0 019.15-42c44-91.87 46.64-145.14 46.64-156.39 0-1.32 0-2.06-.05-2.21l-8.57.46 8.58.25c.93-31.12 6-54.46 13.11-71.91 5.32-13.09 11.75-22.88 18.49-30.31a72.5 72.5 0 0130.39-20.28 66.11 66.11 0 0120.93-3.69h2.06l1.11.11 1.11-.19-.82-5 .73 5h.09l-.82-5 .73 5a19.74 19.74 0 012.41-.12 42.12 42.12 0 0118.07 4.45c8 3.86 17.37 10.93 26.45 24.66a8.58 8.58 0 1014.33-9.45C493.71 300.59 481.72 291.18 471 286a59.2 59.2 0 00-25.53-6.16 34 34 0 00-5.15.34l1.4 8.47.82-8.54c-.24 0-1.55-.14-3.7-.14a82 82 0 00-22.68 3.41 87.69 87.69 0 00-24.51 11.53c-12.82 8.64-25.68 22.27-35.39 42.91s-16.39 48.18-17.49 85v.72h.39-.39.39-.39v1.3c0 8.6-2 59.17-44.95 149A113.85 113.85 0 00283 623.21c.05 38.25 17 77.67 45.71 107.85a166.69 166.69 0 0051.53 36.85 158.21 158.21 0 0065.85 14.23c24.72 0 51.19-5.61 78.52-18.19a8.58 8.58 0 00-7.17-15.59z" /><path d="M540.19 762.8a139.62 139.62 0 00100.08 2.86c145.42-50.44 179.83-175.27 99.24-239.39C652.6 457.11 630.46 409 630.46 409c-69.7-124.93-163.55-80.28-163.55-80.28s-92.3 52.54-29.65 181.14c0 0 26.84 45.68 33.9 156.53 3.52 55.4 36.72 82.83 69.03 96.41z" /><g clip-path="url(#avocade_clip-path-2)"><path d="M556.21 733.67c27.37 12.81 56.83 14.05 83 5.33 119.09-39.66 144-147.09 75.44-205.07C640.66 471.39 621 429 621 429c-61.33-110.47-137.84-74.37-137.84-74.37s-75 43-19.41 156.47c0 0 23.54 40.43 32.54 136.9 4.46 48.19 32.71 73 59.92 85.67z" /></g><path class="cls-5" d="M540.19 762.8l-3.32 7.91a146.29 146.29 0 0056.79 11.43 150.75 150.75 0 0049.42-8.38c48.29-16.74 85-41.62 109.87-70.28s37.67-61.14 37.67-92.68a111.27 111.27 0 00-11.5-49.5c-7.66-15.53-19.15-29.72-34.26-41.74-43-34.2-69.77-63.06-85.74-83.2a241 241 0 01-16.53-23.27c-1.62-2.65-2.74-4.65-3.44-5.95-.34-.65-.59-1.12-.73-1.42l-.15-.3v-.05l-3 1.43 3.06-1.4-3 1.43 3.06-1.4-.14-.31-.16-.29c-20.9-37.47-44.32-60.75-67.29-74.52a122.18 122.18 0 00-63.39-17.92c-25.92 0-43.32 8.26-44 8.59l-.29.14-.27.15c-.61.37-14.32 8.21-28.15 25.24a122.76 122.76 0 00-19 32.65 128.83 128.83 0 00-8.63 47.22c0 24.67 6.32 53.71 22.67 87.25l.15.3.16.29 2.89-1.7-2.9 1.68 2.89-1.7-2.9 1.68c.14.25 25.86 44.83 32.74 152.74 1.83 29.32 11.75 52 25.67 68.83s31.54 27.8 48.61 35l3.32-7.91 3.33-7.91c-15.24-6.4-30.37-15.95-42-30.08s-20.09-32.89-21.78-59c-7.13-112.07-34.36-159.16-35.06-160.33l-7.4 4.35 7.72-3.76c-15.41-31.63-20.94-58-20.94-79.73a111.75 111.75 0 017.45-41 106.22 106.22 0 0125.11-37.63 96.71 96.71 0 0110.59-8.93c1.33-1 2.38-1.66 3.07-2.1.34-.22.59-.37.75-.46l.15-.1-2.25-3.89 2.23 3.91-2.25-3.89 2.23 3.91-4.25-7.46 3.69 7.75-1.2-2.52 1.18 2.53-1.2-2.52 1.18 2.53c.24-.13 15.19-7 36.7-6.94 15.57 0 34.51 3.46 54.56 15.48s41.38 32.78 61.13 68.16l7.49-4.18-7.79 3.59c.56 1.23 23.62 50.5 111.5 120.41 13.29 10.59 23.07 22.77 29.57 35.92a93.92 93.92 0 019.72 41.9c0 26.82-10.94 55.41-33.48 81.45s-56.65 49.39-102.52 65.3a133.7 133.7 0 01-43.8 7.43 129.11 129.11 0 01-50.14-10.09z" /><circle cx="612.66" cy="607.56" r="71.98" transform="rotate(-45 612.667 607.555)" /><path d="M684.64 607.56h-8.58a63.4 63.4 0 11-18.57-44.83 63.14 63.14 0 0118.57 44.83h17.16a80.54 80.54 0 10-23.59 57 80.32 80.32 0 0023.59-57z" /><path class="cls-5" d="M519 657.41a101 101 0 01-10.52-25.86 8.58 8.58 0 00-16.64 4.2A117.81 117.81 0 00504.17 666a8.58 8.58 0 0014.85-8.6zM633.46 704.64a101.76 101.76 0 01-102.59-30.79A8.58 8.58 0 10518 685.22a118.93 118.93 0 00119.91 36 8.58 8.58 0 10-4.47-16.57zM645.5 512.65a101.73 101.73 0 0129.59 18.69 8.58 8.58 0 0011.52-12.72A118.62 118.62 0 00652 496.78a8.58 8.58 0 00-6.53 15.87zM548.68 523.44a101.68 101.68 0 0172.87-17.32 8.58 8.58 0 102.45-17 120.1 120.1 0 00-17.06-1.22 118.13 118.13 0 00-68.11 21.49 8.58 8.58 0 109.86 14z" /></symbol><clipPath id="avocade_clip-path"><path class="cls-1" d="M521 756.15c-150.58 69.27-264.63-84.3-219.46-178.62 48.64-101.53 45.78-154.44 45.78-154.44 4.29-143 94.38-134.42 94.38-134.42s30.5-5.07 55.43 32.74" /></clipPath><clipPath id="avocade_clip-path-2"><path class="cls-1" d="M540.19 762.8a139.62 139.62 0 00100.08 2.86c145.42-50.44 179.83-175.27 99.24-239.39C652.6 457.11 630.46 409 630.46 409c-69.7-124.93-163.55-80.28-163.55-80.28s-92.3 52.54-29.65 181.14c0 0 26.84 45.68 33.9 156.53 3.52 55.4 36.72 82.83 69.03 96.41z" /></clipPath><symbol viewBox="0 0 511.994 511.994" id="euro"><path d="M224 320c88.229 0 160-71.771 160-160S312.229 0 224 0 64 71.771 64 160s71.771 160 160 160zm-42.667-170.667c0-29.406 23.927-53.333 53.333-53.333H256a10.66 10.66 0 0110.667 10.667A10.66 10.66 0 01256 117.334h-21.333c-17.646 0-32 14.354-32 32h32c5.896 0 10.667 4.771 10.667 10.667s-4.771 10.667-10.667 10.667h-32c0 17.646 14.354 32 32 32H256a10.66 10.66 0 0110.667 10.667A10.66 10.66 0 01256 224.002h-21.333c-29.406 0-53.333-23.927-53.333-53.333-5.896 0-10.667-4.771-10.667-10.667s4.771-10.669 10.666-10.669zM426.66 298.667h-64c-11.792 0-21.333 9.552-21.333 21.333s9.542 21.333 21.333 21.333h9.668l-96.46 89.573-71.083-53.302c-8.104-6.094-19.479-5.625-27.063 1.208l-106.667 96c-8.75 7.875-9.458 21.365-1.583 30.125 7.896 8.74 21.354 9.469 30.125 1.583l93.625-84.26 71.312 53.469c8.188 6.198 19.688 5.604 27.313-1.427l113.479-105.374V384c0 11.781 9.542 21.333 21.333 21.333 11.792 0 21.333-9.552 21.333-21.333v-64c.002-11.781-9.54-21.333-21.332-21.333z" /></symbol><symbol viewBox="0 0 512 512" id="stock"><path d="M127.054 257.647l105.111-60.771 39.59 25.549a14.988 14.988 0 0015.506.474l91.385-51.368-2.364 7.127a7.5 7.5 0 0014.237 4.723l7.11-21.438c2.079-6.269-1.752-12.98-8.234-14.352l-22.096-4.681a7.499 7.499 0 00-8.891 5.783 7.498 7.498 0 005.783 8.891l6.282 1.331-90.585 50.906-39.589-25.549a14.96 14.96 0 00-15.666-.383L119.545 244.66a7.5 7.5 0 00-2.738 10.247 7.498 7.498 0 0010.247 2.74z" /><path d="M443.706 327.246V124.6c0-7.919-6.442-14.361-14.361-14.361H141a7.5 7.5 0 000 15h287.706v201.368h-32.505v-33.384a7.5 7.5 0 00-15 0v33.384h-15.903v-95.162l15.903-8.939v35.646a7.5 7.5 0 0015 0v-37.531c0-10.623-11.434-17.325-20.708-12.115l-18.108 10.179a13.915 13.915 0 00-7.087 12.115v95.807h-32.264v-62.048c0-10.623-11.433-17.325-20.707-12.115l-18.108 10.179a13.915 13.915 0 00-7.087 12.115v51.87h-32.264v-75.02c0-10.702-11.586-17.395-20.86-12.028L200.9 250.041a13.94 13.94 0 00-6.934 12.027v64.539h-32.264v-29.818c0-10.698-11.577-17.391-20.853-12.032l-18.108 10.468a13.94 13.94 0 00-6.941 12.031v19.351H83.294V125.239H106a7.5 7.5 0 000-15H82.655c-7.919 0-14.361 6.442-14.361 14.361v202.646c0 7.919 6.442 14.361 14.361 14.361h346.689c7.92 0 14.362-6.442 14.362-14.361zm-156.574-51.864l15.902-8.938v60.164h-15.902zm-78.166-12.678l15.902-9.205v73.108h-15.902zM130.8 307.892l15.902-9.192v27.907H130.8z" /><path d="M492.075 361.813h-13.163v-253.28c0-18.472-15.027-33.499-33.499-33.499H66.587c-18.471 0-33.499 15.027-33.499 33.499v253.28H19.925C8.938 361.813 0 370.751 0 381.738c0 30.453 24.776 55.229 55.229 55.229h401.542c30.453 0 55.229-24.776 55.229-55.229 0-10.987-8.938-19.925-19.925-19.925zM48.088 108.532c0-10.2 8.298-18.499 18.499-18.499h378.826c10.2 0 18.499 8.299 18.499 18.499v253.28H48.088zM183.7 376.813h144.6v7.539c0 4.157-3.382 7.539-7.539 7.539H191.239c-4.157 0-7.539-3.382-7.539-7.539zm273.071 45.154H55.229C33.047 421.967 15 403.92 15 381.738a4.93 4.93 0 014.925-4.925H168.7v7.539c0 12.428 10.111 22.539 22.539 22.539h129.522c12.428 0 22.539-10.111 22.539-22.539v-7.539h148.775a4.93 4.93 0 014.925 4.925c0 22.182-18.047 40.229-40.229 40.229z" /></symbol><symbol viewBox="0 0 480 480" id="user"><path d="M386.816 323.456l-69.984-14.016c-7.424-1.472-12.832-8.064-12.832-15.68v-16.064c4.608-6.4 8.928-14.944 13.408-23.872 3.424-6.752 8.576-16.928 10.88-19.328 13.568-13.28 28.032-29.76 32.448-51.232 4-19.456 0-29.568-4.64-37.568 0-15.648 0-44.288-5.44-64.928-.544-24.928-5.12-39.008-16.608-51.552-8.128-8.768-20.096-10.816-29.696-12.448-3.808-.64-9.024-1.536-10.848-2.528C276.896 5.056 260.032.512 239.392 0c-42.24 1.6-94.08 28.384-111.424 76.544-5.28 14.624-4.768 38.624-4.384 57.92l-.448 11.232c-4.064 8-8.064 18.112-4.032 37.536 4.416 21.568 18.88 38.016 32.384 51.232 2.336 2.432 7.552 12.672 11.008 19.424 4.544 8.896 8.896 17.44 13.504 23.84v16.032c0 7.616-5.408 14.208-12.864 15.68l-69.984 14.016C48.448 332.384 16 371.968 16 417.568V448c0 17.632 14.368 32 32 32h384c17.632 0 32-14.368 32-32v-30.432c0-45.6-32.448-85.184-77.184-94.112zM432 448H48v-30.432c0-30.4 21.632-56.8 51.456-62.752l69.952-14.016C191.776 336.384 208 316.576 208 293.76V272c0-4.288-1.728-8.416-4.768-11.392-2.752-2.688-8.672-14.336-12.224-21.28-6.016-11.776-11.2-21.952-17.12-27.712-10.624-10.368-20.768-21.76-23.456-34.816-2.08-10.112-.64-12.96 1.216-16.576 1.632-3.2 4.064-8 4.064-14.528l-.16-11.872c-.288-13.984-.768-37.408 2.496-46.432C170.464 52.96 209.856 33.152 239.584 32c14.656.384 26.176 3.424 38.4 10.24 6.592 3.648 14.272 4.928 21.024 6.08 3.808.64 10.176 1.728 11.488 2.56 4.32 4.704 7.904 10.368 8.16 32.384 0 1.44.224 2.88.64 4.288 4.768 16.352 4.768 44.576 4.768 58.144 0 6.528 2.464 11.328 4.064 14.528 1.856 3.616 3.296 6.464 1.216 16.608-2.656 12.992-12.864 24.416-23.456 34.784-5.952 5.824-11.104 16-17.056 27.808-3.456 6.912-9.312 18.496-12.032 21.152A16.003 16.003 0 00272 272v21.76c0 22.816 16.224 42.624 38.592 47.072l69.984 14.016c29.792 5.92 51.424 32.32 51.424 62.72V448z" /></symbol></defs></svg>